<mxfile host="65bd71144e">
    <diagram id="fID5XrkkOmG0yW3nTRED" name="0_Basics">
        <mxGraphModel dx="815" dy="352" grid="1" gridSize="10" guides="1" tooltips="1" connect="1" arrows="1" fold="1" page="1" pageScale="1" pageWidth="827" pageHeight="1169" math="0" shadow="0">
            <root>
                <mxCell id="0"/>
                <mxCell id="1" parent="0"/>
                <mxCell id="5" value="Pizzeria" style="shape=umlFrame;whiteSpace=wrap;html=1;" vertex="1" parent="1">
                    <mxGeometry x="244" y="60" width="176" height="260" as="geometry"/>
                </mxCell>
                <mxCell id="6" value="Kunde" style="shape=umlActor;verticalLabelPosition=bottom;verticalAlign=top;html=1;" vertex="1" parent="1">
                    <mxGeometry x="450" y="100" width="30" height="60" as="geometry"/>
                </mxCell>
                <mxCell id="11" value="Fahrer" style="shape=umlActor;verticalLabelPosition=bottom;verticalAlign=top;html=1;" vertex="1" parent="1">
                    <mxGeometry x="530" y="100" width="30" height="60" as="geometry"/>
                </mxCell>
                <mxCell id="12" value="Mitarbeiter" style="shape=umlActor;verticalLabelPosition=bottom;verticalAlign=top;html=1;" vertex="1" parent="1">
                    <mxGeometry x="600" y="100" width="30" height="60" as="geometry"/>
                </mxCell>
                <mxCell id="14" value="Use Cases" style="ellipse;whiteSpace=wrap;html=1;" vertex="1" parent="1">
                    <mxGeometry x="480" y="220" width="140" height="70" as="geometry"/>
                </mxCell>
                <mxCell id="Ea-ihjxQeuI4r3jSx_sw-14" value="&amp;lt;&amp;lt;extend&amp;gt;&amp;gt;" style="html=1;verticalAlign=bottom;labelBackgroundColor=none;endArrow=open;endFill=0;dashed=1;entryX=0.5;entryY=1;entryDx=0;entryDy=0;startArrow=none;" edge="1" parent="1">
                    <mxGeometry width="160" relative="1" as="geometry">
                        <mxPoint x="710" y="240" as="sourcePoint"/>
                        <mxPoint x="710" y="140" as="targetPoint"/>
                    </mxGeometry>
                </mxCell>
                <mxCell id="XyiQ_vXTS__Dh81uZXIP-14" value="&amp;lt;&amp;lt;include&amp;gt;&amp;gt;" style="html=1;verticalAlign=bottom;labelBackgroundColor=none;endArrow=open;endFill=0;dashed=1;" edge="1" parent="1">
                    <mxGeometry width="160" relative="1" as="geometry">
                        <mxPoint x="780" y="140" as="sourcePoint"/>
                        <mxPoint x="780" y="240" as="targetPoint"/>
                    </mxGeometry>
                </mxCell>
                <mxCell id="09JRwPvSVgF2Zk7VVpmy-14" value="" style="endArrow=none;startArrow=none;endFill=0;startFill=0;endSize=8;html=1;verticalAlign=bottom;labelBackgroundColor=none;strokeWidth=1;" edge="1" parent="1">
                    <mxGeometry width="160" relative="1" as="geometry">
                        <mxPoint x="680" y="80" as="sourcePoint"/>
                        <mxPoint x="800" y="80" as="targetPoint"/>
                    </mxGeometry>
                </mxCell>
                <mxCell id="BfmF61Dufiul-V0XKSLx-18" value="Actor" style="shape=umlActor;verticalLabelPosition=bottom;verticalAlign=top;html=1;" vertex="1" parent="1">
                    <mxGeometry x="420" y="395" width="30" height="60" as="geometry"/>
                </mxCell>
                <mxCell id="BfmF61Dufiul-V0XKSLx-19" value="Use Case" style="ellipse;whiteSpace=wrap;html=1;" vertex="1" parent="1">
                    <mxGeometry x="540" y="395" width="110" height="60" as="geometry"/>
                </mxCell>
                <mxCell id="BfmF61Dufiul-V0XKSLx-20" value="" style="endArrow=none;startArrow=none;endFill=0;startFill=0;endSize=8;html=1;verticalAlign=bottom;labelBackgroundColor=none;strokeWidth=1;entryX=0;entryY=0.5;entryDx=0;entryDy=0;" edge="1" parent="1" source="BfmF61Dufiul-V0XKSLx-18" target="BfmF61Dufiul-V0XKSLx-19">
                    <mxGeometry width="160" relative="1" as="geometry">
                        <mxPoint x="440" y="380" as="sourcePoint"/>
                        <mxPoint x="560" y="380" as="targetPoint"/>
                    </mxGeometry>
                </mxCell>
                <mxCell id="BfmF61Dufiul-V0XKSLx-22" value="A" style="ellipse;whiteSpace=wrap;html=1;" vertex="1" parent="1">
                    <mxGeometry x="50" y="390" width="90" height="50" as="geometry"/>
                </mxCell>
                <mxCell id="BfmF61Dufiul-V0XKSLx-23" value="B" style="ellipse;whiteSpace=wrap;html=1;" vertex="1" parent="1">
                    <mxGeometry x="50" y="510" width="90" height="50" as="geometry"/>
                </mxCell>
                <mxCell id="BfmF61Dufiul-V0XKSLx-24" value="A" style="ellipse;whiteSpace=wrap;html=1;" vertex="1" parent="1">
                    <mxGeometry x="220" y="390" width="90" height="50" as="geometry"/>
                </mxCell>
                <mxCell id="BfmF61Dufiul-V0XKSLx-25" value="B" style="ellipse;whiteSpace=wrap;html=1;" vertex="1" parent="1">
                    <mxGeometry x="220" y="510" width="90" height="50" as="geometry"/>
                </mxCell>
                <mxCell id="BfmF61Dufiul-V0XKSLx-26" value="&amp;lt;&amp;lt;extend&amp;gt;&amp;gt;" style="html=1;verticalAlign=bottom;labelBackgroundColor=none;endArrow=open;endFill=0;dashed=1;entryX=0.5;entryY=1;entryDx=0;entryDy=0;startArrow=none;exitX=0.5;exitY=0;exitDx=0;exitDy=0;" edge="1" parent="1" source="BfmF61Dufiul-V0XKSLx-23" target="BfmF61Dufiul-V0XKSLx-22">
                    <mxGeometry width="160" relative="1" as="geometry">
                        <mxPoint x="140" y="360" as="sourcePoint"/>
                        <mxPoint x="140" y="260" as="targetPoint"/>
                        <Array as="points"/>
                    </mxGeometry>
                </mxCell>
                <mxCell id="BfmF61Dufiul-V0XKSLx-27" value="&amp;lt;&amp;lt;include&amp;gt;&amp;gt;" style="html=1;verticalAlign=bottom;labelBackgroundColor=none;endArrow=open;endFill=0;dashed=1;exitX=0.5;exitY=1;exitDx=0;exitDy=0;entryX=0.5;entryY=0;entryDx=0;entryDy=0;" edge="1" parent="1" source="BfmF61Dufiul-V0XKSLx-24" target="BfmF61Dufiul-V0XKSLx-25">
                    <mxGeometry width="160" relative="1" as="geometry">
                        <mxPoint x="200" y="420" as="sourcePoint"/>
                        <mxPoint x="200" y="520" as="targetPoint"/>
                    </mxGeometry>
                </mxCell>
                <mxCell id="BfmF61Dufiul-V0XKSLx-28" value="A" style="ellipse;whiteSpace=wrap;html=1;" vertex="1" parent="1">
                    <mxGeometry x="230" y="630" width="90" height="50" as="geometry"/>
                </mxCell>
                <mxCell id="BfmF61Dufiul-V0XKSLx-29" value="B" style="ellipse;whiteSpace=wrap;html=1;" vertex="1" parent="1">
                    <mxGeometry x="230" y="790" width="90" height="50" as="geometry"/>
                </mxCell>
                <mxCell id="BfmF61Dufiul-V0XKSLx-30" value="&amp;lt;&amp;lt;extend&amp;gt;&amp;gt;" style="html=1;verticalAlign=bottom;labelBackgroundColor=none;endArrow=open;endFill=0;dashed=1;entryX=0.5;entryY=1;entryDx=0;entryDy=0;startArrow=none;exitX=0.5;exitY=0;exitDx=0;exitDy=0;" edge="1" source="mU5p5i_3i8LctqjxRwrs-16" target="BfmF61Dufiul-V0XKSLx-28" parent="1">
                    <mxGeometry width="160" relative="1" as="geometry">
                        <mxPoint x="320" y="600" as="sourcePoint"/>
                        <mxPoint x="320" y="500" as="targetPoint"/>
                        <Array as="points"/>
                    </mxGeometry>
                </mxCell>
                <mxCell id="mU5p5i_3i8LctqjxRwrs-14" value="condition:&lt;br&gt;if ...." style="html=1;" vertex="1" parent="1">
                    <mxGeometry x="90" y="720" width="110" height="50" as="geometry"/>
                </mxCell>
                <mxCell id="mU5p5i_3i8LctqjxRwrs-15" value="" style="endArrow=none;startArrow=none;endFill=0;startFill=0;endSize=8;html=1;verticalAlign=bottom;labelBackgroundColor=none;strokeWidth=1;exitX=1;exitY=0.5;exitDx=0;exitDy=0;" edge="1" parent="1" source="mU5p5i_3i8LctqjxRwrs-14">
                    <mxGeometry width="160" relative="1" as="geometry">
                        <mxPoint x="600" y="590" as="sourcePoint"/>
                        <mxPoint x="274" y="745" as="targetPoint"/>
                    </mxGeometry>
                </mxCell>
                <mxCell id="mU5p5i_3i8LctqjxRwrs-16" value="" style="ellipse;fillColor=#ffffff;strokeColor=#000000;" vertex="1" parent="1">
                    <mxGeometry x="270" y="740" width="10" height="10" as="geometry"/>
                </mxCell>
                <mxCell id="mU5p5i_3i8LctqjxRwrs-17" value="" style="html=1;verticalAlign=bottom;labelBackgroundColor=none;endArrow=none;endFill=0;dashed=1;entryX=0.5;entryY=1;entryDx=0;entryDy=0;startArrow=none;exitX=0.5;exitY=0;exitDx=0;exitDy=0;" edge="1" parent="1" source="BfmF61Dufiul-V0XKSLx-29" target="mU5p5i_3i8LctqjxRwrs-16">
                    <mxGeometry width="160" relative="1" as="geometry">
                        <mxPoint x="275" y="790" as="sourcePoint"/>
                        <mxPoint x="275" y="680" as="targetPoint"/>
                        <Array as="points"/>
                    </mxGeometry>
                </mxCell>
            </root>
        </mxGraphModel>
    </diagram>
    <diagram id="e_hm8e1AvnOTTW33EjGr" name="1_Bestellung">
        <mxGraphModel dx="815" dy="352" grid="1" gridSize="10" guides="1" tooltips="1" connect="1" arrows="1" fold="1" page="1" pageScale="1" pageWidth="827" pageHeight="1169" math="0" shadow="0">
            <root>
                <mxCell id="qVO3WeZ3AxbO-7Kx-sw4-0"/>
                <mxCell id="qVO3WeZ3AxbO-7Kx-sw4-1" parent="qVO3WeZ3AxbO-7Kx-sw4-0"/>
                <mxCell id="qVO3WeZ3AxbO-7Kx-sw4-2" value="Bestellanruf" style="ellipse;whiteSpace=wrap;html=1;" vertex="1" parent="qVO3WeZ3AxbO-7Kx-sw4-1">
                    <mxGeometry x="280" y="50" width="120" height="60" as="geometry"/>
                </mxCell>
                <mxCell id="qVO3WeZ3AxbO-7Kx-sw4-3" value="Kundendaten &lt;br&gt;erfassen" style="ellipse;whiteSpace=wrap;html=1;" vertex="1" parent="qVO3WeZ3AxbO-7Kx-sw4-1">
                    <mxGeometry x="280" y="240" width="120" height="40" as="geometry"/>
                </mxCell>
                <mxCell id="gExEUR6Bz0MQwlv5nkFs-0" value="Kunde" style="shape=umlActor;verticalLabelPosition=bottom;verticalAlign=top;html=1;" vertex="1" parent="qVO3WeZ3AxbO-7Kx-sw4-1">
                    <mxGeometry x="470" y="50" width="30" height="60" as="geometry"/>
                </mxCell>
                <mxCell id="gExEUR6Bz0MQwlv5nkFs-2" value="Mitarbeiter" style="shape=umlActor;verticalLabelPosition=bottom;verticalAlign=top;html=1;" vertex="1" parent="qVO3WeZ3AxbO-7Kx-sw4-1">
                    <mxGeometry x="180" y="50" width="30" height="60" as="geometry"/>
                </mxCell>
                <mxCell id="gExEUR6Bz0MQwlv5nkFs-5" value="condition:&lt;br&gt;Kunde neu" style="html=1;" vertex="1" parent="qVO3WeZ3AxbO-7Kx-sw4-1">
                    <mxGeometry x="110" y="150" width="110" height="50" as="geometry"/>
                </mxCell>
                <mxCell id="gExEUR6Bz0MQwlv5nkFs-10" value="&amp;lt;&amp;lt;extend&amp;gt;&amp;gt;" style="html=1;verticalAlign=bottom;labelBackgroundColor=none;endArrow=open;endFill=0;dashed=1;exitX=0.5;exitY=0;exitDx=0;exitDy=0;entryX=0.5;entryY=1;entryDx=0;entryDy=0;startArrow=none;" edge="1" parent="qVO3WeZ3AxbO-7Kx-sw4-1" source="gExEUR6Bz0MQwlv5nkFs-7" target="qVO3WeZ3AxbO-7Kx-sw4-2">
                    <mxGeometry width="160" relative="1" as="geometry">
                        <mxPoint x="330" y="170" as="sourcePoint"/>
                        <mxPoint x="490" y="170" as="targetPoint"/>
                    </mxGeometry>
                </mxCell>
                <mxCell id="gExEUR6Bz0MQwlv5nkFs-16" value="" style="endArrow=none;startArrow=none;endFill=0;startFill=0;endSize=8;html=1;verticalAlign=bottom;labelBackgroundColor=none;strokeWidth=1;exitX=1;exitY=0.5;exitDx=0;exitDy=0;" edge="1" parent="qVO3WeZ3AxbO-7Kx-sw4-1" source="qVO3WeZ3AxbO-7Kx-sw4-2" target="gExEUR6Bz0MQwlv5nkFs-0">
                    <mxGeometry width="160" relative="1" as="geometry">
                        <mxPoint x="414" y="199" as="sourcePoint"/>
                        <mxPoint x="550" y="150" as="targetPoint"/>
                    </mxGeometry>
                </mxCell>
                <mxCell id="gExEUR6Bz0MQwlv5nkFs-19" value="" style="endArrow=none;startArrow=none;endFill=0;startFill=0;endSize=8;html=1;verticalAlign=bottom;labelBackgroundColor=none;strokeWidth=1;" edge="1" parent="qVO3WeZ3AxbO-7Kx-sw4-1" source="gExEUR6Bz0MQwlv5nkFs-2">
                    <mxGeometry width="160" relative="1" as="geometry">
                        <mxPoint x="410" y="90" as="sourcePoint"/>
                        <mxPoint x="280" y="80" as="targetPoint"/>
                    </mxGeometry>
                </mxCell>
                <mxCell id="gExEUR6Bz0MQwlv5nkFs-20" value="" style="endArrow=none;startArrow=none;endFill=0;startFill=0;endSize=8;html=1;verticalAlign=bottom;labelBackgroundColor=none;strokeWidth=1;exitX=1;exitY=0.5;exitDx=0;exitDy=0;entryX=0;entryY=0.5;entryDx=0;entryDy=0;" edge="1" parent="qVO3WeZ3AxbO-7Kx-sw4-1" source="gExEUR6Bz0MQwlv5nkFs-5" target="gExEUR6Bz0MQwlv5nkFs-7">
                    <mxGeometry width="160" relative="1" as="geometry">
                        <mxPoint x="620" y="20" as="sourcePoint"/>
                        <mxPoint x="280" y="174" as="targetPoint"/>
                    </mxGeometry>
                </mxCell>
                <mxCell id="gExEUR6Bz0MQwlv5nkFs-21" value="" style="endArrow=none;startArrow=none;endFill=0;startFill=0;endSize=8;html=1;verticalAlign=bottom;labelBackgroundColor=none;strokeWidth=1;exitX=1;exitY=0.5;exitDx=0;exitDy=0;" edge="1" parent="qVO3WeZ3AxbO-7Kx-sw4-1" source="qVO3WeZ3AxbO-7Kx-sw4-3">
                    <mxGeometry width="160" relative="1" as="geometry">
                        <mxPoint x="280" y="220" as="sourcePoint"/>
                        <mxPoint x="470" y="80" as="targetPoint"/>
                    </mxGeometry>
                </mxCell>
                <mxCell id="gExEUR6Bz0MQwlv5nkFs-22" value="" style="endArrow=none;startArrow=none;endFill=0;startFill=0;endSize=8;html=1;verticalAlign=bottom;labelBackgroundColor=none;strokeWidth=1;exitX=0;exitY=0.5;exitDx=0;exitDy=0;" edge="1" parent="qVO3WeZ3AxbO-7Kx-sw4-1" source="qVO3WeZ3AxbO-7Kx-sw4-3">
                    <mxGeometry width="160" relative="1" as="geometry">
                        <mxPoint x="280" y="220" as="sourcePoint"/>
                        <mxPoint x="210" y="80" as="targetPoint"/>
                    </mxGeometry>
                </mxCell>
                <mxCell id="gExEUR6Bz0MQwlv5nkFs-7" value="" style="ellipse;fillColor=#ffffff;strokeColor=#000000;" vertex="1" parent="qVO3WeZ3AxbO-7Kx-sw4-1">
                    <mxGeometry x="335" y="170" width="10" height="10" as="geometry"/>
                </mxCell>
                <mxCell id="gExEUR6Bz0MQwlv5nkFs-23" value="" style="html=1;verticalAlign=bottom;labelBackgroundColor=none;endArrow=none;endFill=0;dashed=1;exitX=0.5;exitY=0;exitDx=0;exitDy=0;entryX=0.5;entryY=1;entryDx=0;entryDy=0;" edge="1" parent="qVO3WeZ3AxbO-7Kx-sw4-1" source="qVO3WeZ3AxbO-7Kx-sw4-3" target="gExEUR6Bz0MQwlv5nkFs-7">
                    <mxGeometry width="160" relative="1" as="geometry">
                        <mxPoint x="340" y="240" as="sourcePoint"/>
                        <mxPoint x="340" y="110" as="targetPoint"/>
                    </mxGeometry>
                </mxCell>
            </root>
        </mxGraphModel>
    </diagram>
    <diagram name="2_Liefer-Entscheidung" id="bQkFm1oBN0GyNDe1gmD_">
        <mxGraphModel dx="815" dy="352" grid="1" gridSize="10" guides="1" tooltips="1" connect="1" arrows="1" fold="1" page="1" pageScale="1" pageWidth="827" pageHeight="1169" math="0" shadow="0">
            <root>
                <mxCell id="00LZ215AI54hxtdrhsmk-0"/>
                <mxCell id="00LZ215AI54hxtdrhsmk-1" parent="00LZ215AI54hxtdrhsmk-0"/>
                <mxCell id="00LZ215AI54hxtdrhsmk-3" value="Bestellung &lt;br&gt;aufnehmen" style="ellipse;whiteSpace=wrap;html=1;" vertex="1" parent="00LZ215AI54hxtdrhsmk-1">
                    <mxGeometry x="340" y="190" width="110" height="60" as="geometry"/>
                </mxCell>
                <mxCell id="00LZ215AI54hxtdrhsmk-4" value="Auslieferung" style="ellipse;whiteSpace=wrap;html=1;" vertex="1" parent="00LZ215AI54hxtdrhsmk-1">
                    <mxGeometry x="260" y="330" width="110" height="60" as="geometry"/>
                </mxCell>
                <mxCell id="00LZ215AI54hxtdrhsmk-5" value="Selbstabholung" style="ellipse;whiteSpace=wrap;html=1;" vertex="1" parent="00LZ215AI54hxtdrhsmk-1">
                    <mxGeometry x="440" y="330" width="110" height="60" as="geometry"/>
                </mxCell>
                <mxCell id="00LZ215AI54hxtdrhsmk-7" value="Kunde" style="shape=umlActor;verticalLabelPosition=bottom;verticalAlign=top;html=1;" vertex="1" parent="00LZ215AI54hxtdrhsmk-1">
                    <mxGeometry x="760" y="310" width="30" height="60" as="geometry"/>
                </mxCell>
                <mxCell id="00LZ215AI54hxtdrhsmk-9" value="Mitarbeiter" style="shape=umlActor;verticalLabelPosition=bottom;verticalAlign=top;html=1;" vertex="1" parent="00LZ215AI54hxtdrhsmk-1">
                    <mxGeometry x="200" y="80" width="30" height="60" as="geometry"/>
                </mxCell>
                <mxCell id="00LZ215AI54hxtdrhsmk-10" value="condition:&lt;br&gt;&amp;gt; Lieferung" style="html=1;" vertex="1" parent="00LZ215AI54hxtdrhsmk-1">
                    <mxGeometry x="180" y="240" width="110" height="50" as="geometry"/>
                </mxCell>
                <mxCell id="00LZ215AI54hxtdrhsmk-11" value="" style="endArrow=none;startArrow=none;endFill=0;startFill=0;endSize=8;html=1;verticalAlign=bottom;labelBackgroundColor=none;strokeWidth=1;exitX=1;exitY=0.5;exitDx=0;exitDy=0;" edge="1" parent="00LZ215AI54hxtdrhsmk-1" source="00LZ215AI54hxtdrhsmk-3" target="00LZ215AI54hxtdrhsmk-7">
                    <mxGeometry width="160" relative="1" as="geometry">
                        <mxPoint x="414" y="199" as="sourcePoint"/>
                        <mxPoint x="550" y="150" as="targetPoint"/>
                    </mxGeometry>
                </mxCell>
                <mxCell id="00LZ215AI54hxtdrhsmk-13" value="" style="endArrow=none;startArrow=none;endFill=0;startFill=0;endSize=8;html=1;verticalAlign=bottom;labelBackgroundColor=none;strokeWidth=1;entryX=0;entryY=0.333;entryDx=0;entryDy=0;entryPerimeter=0;" edge="1" parent="00LZ215AI54hxtdrhsmk-1" source="00LZ215AI54hxtdrhsmk-9" target="00LZ215AI54hxtdrhsmk-3">
                    <mxGeometry width="160" relative="1" as="geometry">
                        <mxPoint x="410" y="90" as="sourcePoint"/>
                        <mxPoint x="280" y="80" as="targetPoint"/>
                    </mxGeometry>
                </mxCell>
                <mxCell id="00LZ215AI54hxtdrhsmk-17" value="&amp;lt;&amp;lt;extend&amp;gt;&amp;gt;" style="html=1;verticalAlign=bottom;labelBackgroundColor=none;endArrow=open;endFill=0;dashed=1;entryX=0.407;entryY=0.986;entryDx=0;entryDy=0;entryPerimeter=0;exitX=0.5;exitY=0;exitDx=0;exitDy=0;" edge="1" parent="00LZ215AI54hxtdrhsmk-1" target="00LZ215AI54hxtdrhsmk-3" source="00LZ215AI54hxtdrhsmk-4">
                    <mxGeometry width="160" relative="1" as="geometry">
                        <mxPoint x="50" y="319.5" as="sourcePoint"/>
                        <mxPoint x="210" y="319.5" as="targetPoint"/>
                    </mxGeometry>
                </mxCell>
                <mxCell id="00LZ215AI54hxtdrhsmk-19" value="&amp;lt;&amp;lt;extend&amp;gt;&amp;gt;" style="html=1;verticalAlign=bottom;labelBackgroundColor=none;endArrow=open;endFill=0;dashed=1;entryX=0.5;entryY=1;entryDx=0;entryDy=0;exitX=0.5;exitY=0;exitDx=0;exitDy=0;" edge="1" parent="00LZ215AI54hxtdrhsmk-1" source="00LZ215AI54hxtdrhsmk-5" target="00LZ215AI54hxtdrhsmk-3">
                    <mxGeometry width="160" relative="1" as="geometry">
                        <mxPoint x="380" y="338.5" as="sourcePoint"/>
                        <mxPoint x="480.98" y="270" as="targetPoint"/>
                    </mxGeometry>
                </mxCell>
                <mxCell id="00LZ215AI54hxtdrhsmk-20" value="condition:&lt;br&gt;&amp;gt; Selbst abholen" style="html=1;" vertex="1" parent="00LZ215AI54hxtdrhsmk-1">
                    <mxGeometry x="540" y="240" width="110" height="50" as="geometry"/>
                </mxCell>
                <mxCell id="00LZ215AI54hxtdrhsmk-21" value="" style="endArrow=none;startArrow=none;endFill=0;startFill=0;endSize=8;html=1;verticalAlign=bottom;labelBackgroundColor=none;strokeWidth=1;entryX=0;entryY=0.5;entryDx=0;entryDy=0;" edge="1" parent="00LZ215AI54hxtdrhsmk-1" target="00LZ215AI54hxtdrhsmk-20">
                    <mxGeometry width="160" relative="1" as="geometry">
                        <mxPoint x="460" y="300" as="sourcePoint"/>
                        <mxPoint x="770" y="90" as="targetPoint"/>
                    </mxGeometry>
                </mxCell>
                <mxCell id="00LZ215AI54hxtdrhsmk-22" value="" style="endArrow=none;startArrow=none;endFill=0;startFill=0;endSize=8;html=1;verticalAlign=bottom;labelBackgroundColor=none;strokeWidth=1;entryX=1;entryY=0.5;entryDx=0;entryDy=0;" edge="1" parent="00LZ215AI54hxtdrhsmk-1" target="00LZ215AI54hxtdrhsmk-10">
                    <mxGeometry width="160" relative="1" as="geometry">
                        <mxPoint x="340" y="300" as="sourcePoint"/>
                        <mxPoint x="550" y="275" as="targetPoint"/>
                    </mxGeometry>
                </mxCell>
                <mxCell id="OEZ1TUgWd1nqhmvEmPLm-0" value="" style="endArrow=none;startArrow=none;endFill=0;startFill=0;endSize=8;html=1;verticalAlign=bottom;labelBackgroundColor=none;strokeWidth=1;exitX=1;exitY=0.5;exitDx=0;exitDy=0;" edge="1" parent="00LZ215AI54hxtdrhsmk-1" source="00LZ215AI54hxtdrhsmk-5">
                    <mxGeometry width="160" relative="1" as="geometry">
                        <mxPoint x="460" y="230" as="sourcePoint"/>
                        <mxPoint x="760" y="344" as="targetPoint"/>
                    </mxGeometry>
                </mxCell>
                <mxCell id="073oUz91GRrB12IazELK-0" value="Fahrer" style="shape=umlActor;verticalLabelPosition=bottom;verticalAlign=top;html=1;" vertex="1" parent="00LZ215AI54hxtdrhsmk-1">
                    <mxGeometry x="90" y="360" width="30" height="60" as="geometry"/>
                </mxCell>
                <mxCell id="073oUz91GRrB12IazELK-1" value="" style="endArrow=none;startArrow=none;endFill=0;startFill=0;endSize=8;html=1;verticalAlign=bottom;labelBackgroundColor=none;strokeWidth=1;entryX=0;entryY=0.5;entryDx=0;entryDy=0;" edge="1" parent="00LZ215AI54hxtdrhsmk-1" source="073oUz91GRrB12IazELK-0" target="00LZ215AI54hxtdrhsmk-4">
                    <mxGeometry width="160" relative="1" as="geometry">
                        <mxPoint x="120" y="390" as="sourcePoint"/>
                        <mxPoint x="350" y="219.98000000000002" as="targetPoint"/>
                    </mxGeometry>
                </mxCell>
            </root>
        </mxGraphModel>
    </diagram>
    <diagram name="3_Lieferung / Abholung" id="-GS6oTWyuyvuhtPb1rfv">
        <mxGraphModel dx="815" dy="352" grid="1" gridSize="10" guides="1" tooltips="1" connect="1" arrows="1" fold="1" page="1" pageScale="1" pageWidth="827" pageHeight="1169" math="0" shadow="0">
            <root>
                <mxCell id="4quLY8VtAxeJVWALB205-0"/>
                <mxCell id="4quLY8VtAxeJVWALB205-1" parent="4quLY8VtAxeJVWALB205-0"/>
                <mxCell id="4quLY8VtAxeJVWALB205-3" value="Bestellung &lt;br&gt;aufnehmen" style="ellipse;whiteSpace=wrap;html=1;" vertex="1" parent="4quLY8VtAxeJVWALB205-1">
                    <mxGeometry x="340" y="190" width="110" height="60" as="geometry"/>
                </mxCell>
                <mxCell id="4quLY8VtAxeJVWALB205-4" value="Auslieferung" style="ellipse;whiteSpace=wrap;html=1;" vertex="1" parent="4quLY8VtAxeJVWALB205-1">
                    <mxGeometry x="260" y="330" width="110" height="60" as="geometry"/>
                </mxCell>
                <mxCell id="4quLY8VtAxeJVWALB205-5" value="Selbstabholung" style="ellipse;whiteSpace=wrap;html=1;" vertex="1" parent="4quLY8VtAxeJVWALB205-1">
                    <mxGeometry x="460" y="420" width="110" height="60" as="geometry"/>
                </mxCell>
                <mxCell id="4quLY8VtAxeJVWALB205-6" value="SMS senden" style="ellipse;whiteSpace=wrap;html=1;" vertex="1" parent="4quLY8VtAxeJVWALB205-1">
                    <mxGeometry x="260" y="490" width="110" height="60" as="geometry"/>
                </mxCell>
                <mxCell id="4quLY8VtAxeJVWALB205-7" value="Kunde" style="shape=umlActor;verticalLabelPosition=bottom;verticalAlign=top;html=1;" vertex="1" parent="4quLY8VtAxeJVWALB205-1">
                    <mxGeometry x="660" y="390" width="30" height="60" as="geometry"/>
                </mxCell>
                <mxCell id="4quLY8VtAxeJVWALB205-8" value="Fahrer" style="shape=umlActor;verticalLabelPosition=bottom;verticalAlign=top;html=1;" vertex="1" parent="4quLY8VtAxeJVWALB205-1">
                    <mxGeometry x="120" y="390" width="30" height="60" as="geometry"/>
                </mxCell>
                <mxCell id="4quLY8VtAxeJVWALB205-10" value="condition:&lt;br&gt;&amp;gt; Lieferung" style="html=1;" vertex="1" parent="4quLY8VtAxeJVWALB205-1">
                    <mxGeometry x="180" y="240" width="110" height="50" as="geometry"/>
                </mxCell>
                <mxCell id="4quLY8VtAxeJVWALB205-12" value="" style="endArrow=none;startArrow=none;endFill=0;startFill=0;endSize=8;html=1;verticalAlign=bottom;labelBackgroundColor=none;strokeWidth=1;exitX=1;exitY=0.5;exitDx=0;exitDy=0;entryX=0;entryY=0.3333333333333333;entryDx=0;entryDy=0;entryPerimeter=0;" edge="1" parent="4quLY8VtAxeJVWALB205-1" source="4quLY8VtAxeJVWALB205-3" target="4quLY8VtAxeJVWALB205-7">
                    <mxGeometry width="160" relative="1" as="geometry">
                        <mxPoint x="610" y="10" as="sourcePoint"/>
                        <mxPoint x="690" y="371.15740966796875" as="targetPoint"/>
                    </mxGeometry>
                </mxCell>
                <mxCell id="4quLY8VtAxeJVWALB205-15" value="&amp;lt;&amp;lt;extend&amp;gt;&amp;gt;" style="html=1;verticalAlign=bottom;labelBackgroundColor=none;endArrow=open;endFill=0;dashed=1;entryX=0.407;entryY=0.986;entryDx=0;entryDy=0;entryPerimeter=0;exitX=0.5;exitY=0;exitDx=0;exitDy=0;" edge="1" parent="4quLY8VtAxeJVWALB205-1" source="4quLY8VtAxeJVWALB205-4" target="4quLY8VtAxeJVWALB205-3">
                    <mxGeometry width="160" relative="1" as="geometry">
                        <mxPoint x="50" y="319.5" as="sourcePoint"/>
                        <mxPoint x="210" y="319.5" as="targetPoint"/>
                    </mxGeometry>
                </mxCell>
                <mxCell id="4quLY8VtAxeJVWALB205-17" value="&amp;lt;&amp;lt;extend&amp;gt;&amp;gt;" style="html=1;verticalAlign=bottom;labelBackgroundColor=none;endArrow=open;endFill=0;dashed=1;entryX=0.5;entryY=1;entryDx=0;entryDy=0;exitX=0.5;exitY=0;exitDx=0;exitDy=0;" edge="1" parent="4quLY8VtAxeJVWALB205-1" source="4quLY8VtAxeJVWALB205-5" target="4quLY8VtAxeJVWALB205-3">
                    <mxGeometry width="160" relative="1" as="geometry">
                        <mxPoint x="380" y="338.5" as="sourcePoint"/>
                        <mxPoint x="480.98" y="270" as="targetPoint"/>
                    </mxGeometry>
                </mxCell>
                <mxCell id="4quLY8VtAxeJVWALB205-18" value="condition:&lt;br&gt;&amp;gt; Selbst abholen" style="html=1;" vertex="1" parent="4quLY8VtAxeJVWALB205-1">
                    <mxGeometry x="540" y="240" width="110" height="50" as="geometry"/>
                </mxCell>
                <mxCell id="4quLY8VtAxeJVWALB205-19" value="" style="endArrow=none;startArrow=none;endFill=0;startFill=0;endSize=8;html=1;verticalAlign=bottom;labelBackgroundColor=none;strokeWidth=1;entryX=0;entryY=0.5;entryDx=0;entryDy=0;" edge="1" parent="4quLY8VtAxeJVWALB205-1" target="4quLY8VtAxeJVWALB205-18">
                    <mxGeometry width="160" relative="1" as="geometry">
                        <mxPoint x="440" y="310" as="sourcePoint"/>
                        <mxPoint x="770" y="90" as="targetPoint"/>
                    </mxGeometry>
                </mxCell>
                <mxCell id="4quLY8VtAxeJVWALB205-20" value="" style="endArrow=none;startArrow=none;endFill=0;startFill=0;endSize=8;html=1;verticalAlign=bottom;labelBackgroundColor=none;strokeWidth=1;entryX=1;entryY=0.5;entryDx=0;entryDy=0;" edge="1" parent="4quLY8VtAxeJVWALB205-1" target="4quLY8VtAxeJVWALB205-10">
                    <mxGeometry width="160" relative="1" as="geometry">
                        <mxPoint x="340" y="300" as="sourcePoint"/>
                        <mxPoint x="550" y="275" as="targetPoint"/>
                    </mxGeometry>
                </mxCell>
                <mxCell id="4quLY8VtAxeJVWALB205-22" value="&amp;lt;&amp;lt;include&amp;gt;&amp;gt;" style="html=1;verticalAlign=bottom;labelBackgroundColor=none;endArrow=open;endFill=0;dashed=1;entryX=0.5;entryY=0;entryDx=0;entryDy=0;" edge="1" parent="4quLY8VtAxeJVWALB205-1" source="4quLY8VtAxeJVWALB205-4" target="4quLY8VtAxeJVWALB205-6">
                    <mxGeometry width="160" relative="1" as="geometry">
                        <mxPoint x="120" y="160" as="sourcePoint"/>
                        <mxPoint x="164.99" y="241.44000000000005" as="targetPoint"/>
                    </mxGeometry>
                </mxCell>
                <mxCell id="4quLY8VtAxeJVWALB205-23" value="" style="endArrow=none;startArrow=none;endFill=0;startFill=0;endSize=8;html=1;verticalAlign=bottom;labelBackgroundColor=none;strokeWidth=1;entryX=0;entryY=0.5;entryDx=0;entryDy=0;exitX=1;exitY=0.3333333333333333;exitDx=0;exitDy=0;exitPerimeter=0;" edge="1" parent="4quLY8VtAxeJVWALB205-1" source="4quLY8VtAxeJVWALB205-8" target="4quLY8VtAxeJVWALB205-6">
                    <mxGeometry width="160" relative="1" as="geometry">
                        <mxPoint x="250" y="560" as="sourcePoint"/>
                        <mxPoint x="230" y="530" as="targetPoint"/>
                    </mxGeometry>
                </mxCell>
                <mxCell id="4quLY8VtAxeJVWALB205-24" value="" style="endArrow=none;startArrow=none;endFill=0;startFill=0;endSize=8;html=1;verticalAlign=bottom;labelBackgroundColor=none;strokeWidth=1;entryX=0;entryY=0.5;entryDx=0;entryDy=0;exitX=1;exitY=0.3333333333333333;exitDx=0;exitDy=0;exitPerimeter=0;" edge="1" parent="4quLY8VtAxeJVWALB205-1" source="4quLY8VtAxeJVWALB205-8" target="4quLY8VtAxeJVWALB205-4">
                    <mxGeometry width="160" relative="1" as="geometry">
                        <mxPoint x="150" y="420" as="sourcePoint"/>
                        <mxPoint x="270" y="530" as="targetPoint"/>
                    </mxGeometry>
                </mxCell>
                <mxCell id="orNekSm3uqwjZ-weCiGI-0" value="" style="endArrow=none;startArrow=none;endFill=0;startFill=0;endSize=8;html=1;verticalAlign=bottom;labelBackgroundColor=none;strokeWidth=1;exitX=1;exitY=0.5;exitDx=0;exitDy=0;entryX=0;entryY=0.3333333333333333;entryDx=0;entryDy=0;entryPerimeter=0;" edge="1" parent="4quLY8VtAxeJVWALB205-1" source="4quLY8VtAxeJVWALB205-5" target="4quLY8VtAxeJVWALB205-7">
                    <mxGeometry width="160" relative="1" as="geometry">
                        <mxPoint x="460" y="230" as="sourcePoint"/>
                        <mxPoint x="690" y="370" as="targetPoint"/>
                    </mxGeometry>
                </mxCell>
            </root>
        </mxGraphModel>
    </diagram>
    <diagram name="4_Gesamt" id="FK6fR17bqPlBajzCCFtD">
        <mxGraphModel dx="1482" dy="640" grid="1" gridSize="10" guides="1" tooltips="1" connect="1" arrows="1" fold="1" page="1" pageScale="1" pageWidth="827" pageHeight="1169" math="0" shadow="0">
            <root>
                <mxCell id="Qr9QV7bX5ENCLl-kBg4W-0"/>
                <mxCell id="Qr9QV7bX5ENCLl-kBg4W-1" parent="Qr9QV7bX5ENCLl-kBg4W-0"/>
                <mxCell id="rNcgIZyLMhiz7Yg6Gkg0-0" value="Pizzeria" style="shape=umlFrame;whiteSpace=wrap;html=1;" vertex="1" parent="Qr9QV7bX5ENCLl-kBg4W-1">
                    <mxGeometry x="150" y="20" width="450" height="660" as="geometry"/>
                </mxCell>
                <mxCell id="Qr9QV7bX5ENCLl-kBg4W-2" value="Bestellanruf" style="ellipse;whiteSpace=wrap;html=1;" vertex="1" parent="Qr9QV7bX5ENCLl-kBg4W-1">
                    <mxGeometry x="300" y="30" width="120" height="60" as="geometry"/>
                </mxCell>
                <mxCell id="Qr9QV7bX5ENCLl-kBg4W-3" value="Bestellung &lt;br&gt;aufnehmen" style="ellipse;whiteSpace=wrap;html=1;" vertex="1" parent="Qr9QV7bX5ENCLl-kBg4W-1">
                    <mxGeometry x="350" y="250" width="110" height="60" as="geometry"/>
                </mxCell>
                <mxCell id="Qr9QV7bX5ENCLl-kBg4W-4" value="Auslieferung" style="ellipse;whiteSpace=wrap;html=1;" vertex="1" parent="Qr9QV7bX5ENCLl-kBg4W-1">
                    <mxGeometry x="250" y="400" width="110" height="60" as="geometry"/>
                </mxCell>
                <mxCell id="Qr9QV7bX5ENCLl-kBg4W-5" value="Selbstabholung" style="ellipse;whiteSpace=wrap;html=1;" vertex="1" parent="Qr9QV7bX5ENCLl-kBg4W-1">
                    <mxGeometry x="380" y="490" width="110" height="60" as="geometry"/>
                </mxCell>
                <mxCell id="Qr9QV7bX5ENCLl-kBg4W-6" value="SMS senden" style="ellipse;whiteSpace=wrap;html=1;" vertex="1" parent="Qr9QV7bX5ENCLl-kBg4W-1">
                    <mxGeometry x="250" y="600" width="110" height="60" as="geometry"/>
                </mxCell>
                <mxCell id="Qr9QV7bX5ENCLl-kBg4W-7" value="Kunde" style="shape=umlActor;verticalLabelPosition=bottom;verticalAlign=top;html=1;" vertex="1" parent="Qr9QV7bX5ENCLl-kBg4W-1">
                    <mxGeometry x="750" y="230" width="30" height="60" as="geometry"/>
                </mxCell>
                <mxCell id="Qr9QV7bX5ENCLl-kBg4W-8" value="Fahrer" style="shape=umlActor;verticalLabelPosition=bottom;verticalAlign=top;html=1;" vertex="1" parent="Qr9QV7bX5ENCLl-kBg4W-1">
                    <mxGeometry x="80" y="500" width="30" height="60" as="geometry"/>
                </mxCell>
                <mxCell id="Qr9QV7bX5ENCLl-kBg4W-9" value="Mitarbeiter" style="shape=umlActor;verticalLabelPosition=bottom;verticalAlign=top;html=1;" vertex="1" parent="Qr9QV7bX5ENCLl-kBg4W-1">
                    <mxGeometry x="60" y="90" width="30" height="60" as="geometry"/>
                </mxCell>
                <mxCell id="Qr9QV7bX5ENCLl-kBg4W-10" value="condition:&lt;br&gt;&amp;gt; Lieferung" style="html=1;" vertex="1" parent="Qr9QV7bX5ENCLl-kBg4W-1">
                    <mxGeometry x="170" y="310" width="110" height="50" as="geometry"/>
                </mxCell>
                <mxCell id="Qr9QV7bX5ENCLl-kBg4W-11" value="" style="endArrow=none;startArrow=none;endFill=0;startFill=0;endSize=8;html=1;verticalAlign=bottom;labelBackgroundColor=none;strokeWidth=1;exitX=1;exitY=0.5;exitDx=0;exitDy=0;entryX=0;entryY=0.3333333333333333;entryDx=0;entryDy=0;entryPerimeter=0;" edge="1" parent="Qr9QV7bX5ENCLl-kBg4W-1" source="Qr9QV7bX5ENCLl-kBg4W-2" target="Qr9QV7bX5ENCLl-kBg4W-7">
                    <mxGeometry width="160" relative="1" as="geometry">
                        <mxPoint x="414" y="199" as="sourcePoint"/>
                        <mxPoint x="550" y="150" as="targetPoint"/>
                    </mxGeometry>
                </mxCell>
                <mxCell id="Qr9QV7bX5ENCLl-kBg4W-12" value="" style="endArrow=none;startArrow=none;endFill=0;startFill=0;endSize=8;html=1;verticalAlign=bottom;labelBackgroundColor=none;strokeWidth=1;exitX=1;exitY=0.5;exitDx=0;exitDy=0;entryX=0;entryY=0.3333333333333333;entryDx=0;entryDy=0;entryPerimeter=0;" edge="1" parent="Qr9QV7bX5ENCLl-kBg4W-1" source="Qr9QV7bX5ENCLl-kBg4W-3" target="Qr9QV7bX5ENCLl-kBg4W-7">
                    <mxGeometry width="160" relative="1" as="geometry">
                        <mxPoint x="610" y="10" as="sourcePoint"/>
                        <mxPoint x="700" y="150" as="targetPoint"/>
                    </mxGeometry>
                </mxCell>
                <mxCell id="Qr9QV7bX5ENCLl-kBg4W-13" value="" style="endArrow=none;startArrow=none;endFill=0;startFill=0;endSize=8;html=1;verticalAlign=bottom;labelBackgroundColor=none;strokeWidth=1;entryX=0;entryY=0.5;entryDx=0;entryDy=0;exitX=1;exitY=0.3333333333333333;exitDx=0;exitDy=0;exitPerimeter=0;" edge="1" parent="Qr9QV7bX5ENCLl-kBg4W-1" source="Qr9QV7bX5ENCLl-kBg4W-9" target="Qr9QV7bX5ENCLl-kBg4W-2">
                    <mxGeometry width="160" relative="1" as="geometry">
                        <mxPoint x="410" y="90" as="sourcePoint"/>
                        <mxPoint x="280" y="80" as="targetPoint"/>
                    </mxGeometry>
                </mxCell>
                <mxCell id="Qr9QV7bX5ENCLl-kBg4W-14" value="&amp;lt;&amp;lt;include&amp;gt;&amp;gt;" style="html=1;verticalAlign=bottom;labelBackgroundColor=none;endArrow=open;endFill=0;dashed=1;exitX=0.5;exitY=1;exitDx=0;exitDy=0;entryX=0.5;entryY=0;entryDx=0;entryDy=0;" edge="1" parent="Qr9QV7bX5ENCLl-kBg4W-1" source="Qr9QV7bX5ENCLl-kBg4W-2" target="Qr9QV7bX5ENCLl-kBg4W-3">
                    <mxGeometry width="160" relative="1" as="geometry">
                        <mxPoint x="35" y="260" as="sourcePoint"/>
                        <mxPoint x="195" y="260" as="targetPoint"/>
                    </mxGeometry>
                </mxCell>
                <mxCell id="Qr9QV7bX5ENCLl-kBg4W-15" value="&amp;lt;&amp;lt;extend&amp;gt;&amp;gt;" style="html=1;verticalAlign=bottom;labelBackgroundColor=none;endArrow=open;endFill=0;dashed=1;entryX=0.407;entryY=0.986;entryDx=0;entryDy=0;entryPerimeter=0;exitX=0.5;exitY=0;exitDx=0;exitDy=0;" edge="1" parent="Qr9QV7bX5ENCLl-kBg4W-1" source="Qr9QV7bX5ENCLl-kBg4W-4" target="Qr9QV7bX5ENCLl-kBg4W-3">
                    <mxGeometry width="160" relative="1" as="geometry">
                        <mxPoint x="50" y="319.5" as="sourcePoint"/>
                        <mxPoint x="210" y="319.5" as="targetPoint"/>
                    </mxGeometry>
                </mxCell>
                <mxCell id="Qr9QV7bX5ENCLl-kBg4W-16" value="&amp;lt;&amp;lt;extend&amp;gt;&amp;gt;" style="html=1;verticalAlign=bottom;labelBackgroundColor=none;endArrow=open;endFill=0;dashed=1;entryX=0.288;entryY=0.991;entryDx=0;entryDy=0;entryPerimeter=0;exitX=0.5;exitY=0;exitDx=0;exitDy=0;" edge="1" parent="Qr9QV7bX5ENCLl-kBg4W-1" target="Qr9QV7bX5ENCLl-kBg4W-2" source="Co6jJOooq2YRTmOfTn0H-0">
                    <mxGeometry width="160" relative="1" as="geometry">
                        <mxPoint x="19.019999999999982" y="308.5" as="sourcePoint"/>
                        <mxPoint x="120" y="240" as="targetPoint"/>
                    </mxGeometry>
                </mxCell>
                <mxCell id="Qr9QV7bX5ENCLl-kBg4W-17" value="&amp;lt;&amp;lt;extend&amp;gt;&amp;gt;" style="html=1;verticalAlign=bottom;labelBackgroundColor=none;endArrow=open;endFill=0;dashed=1;entryX=0.5;entryY=1;entryDx=0;entryDy=0;exitX=0.5;exitY=0;exitDx=0;exitDy=0;" edge="1" parent="Qr9QV7bX5ENCLl-kBg4W-1" source="Qr9QV7bX5ENCLl-kBg4W-5" target="Qr9QV7bX5ENCLl-kBg4W-3">
                    <mxGeometry width="160" relative="1" as="geometry">
                        <mxPoint x="380" y="338.5" as="sourcePoint"/>
                        <mxPoint x="480.98" y="270" as="targetPoint"/>
                    </mxGeometry>
                </mxCell>
                <mxCell id="Qr9QV7bX5ENCLl-kBg4W-18" value="condition:&lt;br&gt;&amp;gt; Selbst abholen" style="html=1;" vertex="1" parent="Qr9QV7bX5ENCLl-kBg4W-1">
                    <mxGeometry x="460" y="380" width="110" height="50" as="geometry"/>
                </mxCell>
                <mxCell id="Qr9QV7bX5ENCLl-kBg4W-19" value="" style="endArrow=none;startArrow=none;endFill=0;startFill=0;endSize=8;html=1;verticalAlign=bottom;labelBackgroundColor=none;strokeWidth=1;entryX=0;entryY=0.5;entryDx=0;entryDy=0;" edge="1" parent="Qr9QV7bX5ENCLl-kBg4W-1" target="Qr9QV7bX5ENCLl-kBg4W-18">
                    <mxGeometry width="160" relative="1" as="geometry">
                        <mxPoint x="420" y="410" as="sourcePoint"/>
                        <mxPoint x="770" y="90" as="targetPoint"/>
                    </mxGeometry>
                </mxCell>
                <mxCell id="Qr9QV7bX5ENCLl-kBg4W-20" value="" style="endArrow=none;startArrow=none;endFill=0;startFill=0;endSize=8;html=1;verticalAlign=bottom;labelBackgroundColor=none;strokeWidth=1;entryX=1;entryY=0.5;entryDx=0;entryDy=0;exitX=0;exitY=0;exitDx=0;exitDy=0;" edge="1" parent="Qr9QV7bX5ENCLl-kBg4W-1" target="Qr9QV7bX5ENCLl-kBg4W-10" source="rNcgIZyLMhiz7Yg6Gkg0-2">
                    <mxGeometry width="160" relative="1" as="geometry">
                        <mxPoint x="320" y="380" as="sourcePoint"/>
                        <mxPoint x="550" y="275" as="targetPoint"/>
                    </mxGeometry>
                </mxCell>
                <mxCell id="Qr9QV7bX5ENCLl-kBg4W-21" value="&amp;lt;&amp;lt;include&amp;gt;&amp;gt;" style="html=1;verticalAlign=bottom;labelBackgroundColor=none;endArrow=open;endFill=0;dashed=1;entryX=0.5;entryY=0;entryDx=0;entryDy=0;" edge="1" parent="Qr9QV7bX5ENCLl-kBg4W-1" source="Qr9QV7bX5ENCLl-kBg4W-4" target="Qr9QV7bX5ENCLl-kBg4W-6">
                    <mxGeometry width="160" relative="1" as="geometry">
                        <mxPoint x="120" y="160" as="sourcePoint"/>
                        <mxPoint x="164.99" y="241.44000000000005" as="targetPoint"/>
                    </mxGeometry>
                </mxCell>
                <mxCell id="Qr9QV7bX5ENCLl-kBg4W-22" value="" style="endArrow=none;startArrow=none;endFill=0;startFill=0;endSize=8;html=1;verticalAlign=bottom;labelBackgroundColor=none;strokeWidth=1;entryX=0;entryY=0.5;entryDx=0;entryDy=0;exitX=1;exitY=0.3333333333333333;exitDx=0;exitDy=0;exitPerimeter=0;" edge="1" parent="Qr9QV7bX5ENCLl-kBg4W-1" source="Qr9QV7bX5ENCLl-kBg4W-8" target="Qr9QV7bX5ENCLl-kBg4W-6">
                    <mxGeometry width="160" relative="1" as="geometry">
                        <mxPoint x="250" y="560" as="sourcePoint"/>
                        <mxPoint x="230" y="530" as="targetPoint"/>
                    </mxGeometry>
                </mxCell>
                <mxCell id="Qr9QV7bX5ENCLl-kBg4W-23" value="" style="endArrow=none;startArrow=none;endFill=0;startFill=0;endSize=8;html=1;verticalAlign=bottom;labelBackgroundColor=none;strokeWidth=1;entryX=0;entryY=0.5;entryDx=0;entryDy=0;exitX=1;exitY=0.3333333333333333;exitDx=0;exitDy=0;exitPerimeter=0;" edge="1" parent="Qr9QV7bX5ENCLl-kBg4W-1" target="Qr9QV7bX5ENCLl-kBg4W-4" source="Qr9QV7bX5ENCLl-kBg4W-8">
                    <mxGeometry width="160" relative="1" as="geometry">
                        <mxPoint x="150" y="420" as="sourcePoint"/>
                        <mxPoint x="270" y="530" as="targetPoint"/>
                    </mxGeometry>
                </mxCell>
                <mxCell id="Co6jJOooq2YRTmOfTn0H-0" value="Kundendaten &lt;br&gt;erfassen" style="ellipse;whiteSpace=wrap;html=1;" vertex="1" parent="Qr9QV7bX5ENCLl-kBg4W-1">
                    <mxGeometry x="230" y="170" width="120" height="40" as="geometry"/>
                </mxCell>
                <mxCell id="Co6jJOooq2YRTmOfTn0H-1" value="" style="endArrow=none;startArrow=none;endFill=0;startFill=0;endSize=8;html=1;verticalAlign=bottom;labelBackgroundColor=none;strokeWidth=1;entryX=0;entryY=0.5;entryDx=0;entryDy=0;exitX=1;exitY=0.3333333333333333;exitDx=0;exitDy=0;exitPerimeter=0;" edge="1" parent="Qr9QV7bX5ENCLl-kBg4W-1" source="Qr9QV7bX5ENCLl-kBg4W-9" target="Co6jJOooq2YRTmOfTn0H-0">
                    <mxGeometry width="160" relative="1" as="geometry">
                        <mxPoint x="100" y="120" as="sourcePoint"/>
                        <mxPoint x="310" y="70" as="targetPoint"/>
                    </mxGeometry>
                </mxCell>
                <mxCell id="Co6jJOooq2YRTmOfTn0H-2" value="" style="endArrow=none;startArrow=none;endFill=0;startFill=0;endSize=8;html=1;verticalAlign=bottom;labelBackgroundColor=none;strokeWidth=1;exitX=1;exitY=0.5;exitDx=0;exitDy=0;entryX=0;entryY=0.3333333333333333;entryDx=0;entryDy=0;entryPerimeter=0;" edge="1" parent="Qr9QV7bX5ENCLl-kBg4W-1" source="Co6jJOooq2YRTmOfTn0H-0" target="Qr9QV7bX5ENCLl-kBg4W-7">
                    <mxGeometry width="160" relative="1" as="geometry">
                        <mxPoint x="430" y="70" as="sourcePoint"/>
                        <mxPoint x="700" y="150" as="targetPoint"/>
                    </mxGeometry>
                </mxCell>
                <mxCell id="2z0K_z1JKmJccBuWAb4L-0" value="condition:&lt;br&gt;Kunde neu" style="html=1;" vertex="1" parent="Qr9QV7bX5ENCLl-kBg4W-1">
                    <mxGeometry x="180" y="100" width="80" height="40" as="geometry"/>
                </mxCell>
                <mxCell id="2z0K_z1JKmJccBuWAb4L-1" value="" style="endArrow=none;startArrow=none;endFill=0;startFill=0;endSize=8;html=1;verticalAlign=bottom;labelBackgroundColor=none;strokeWidth=1;exitX=1;exitY=0.5;exitDx=0;exitDy=0;entryX=0;entryY=0.5;entryDx=0;entryDy=0;" edge="1" parent="Qr9QV7bX5ENCLl-kBg4W-1" source="2z0K_z1JKmJccBuWAb4L-0" target="rNcgIZyLMhiz7Yg6Gkg0-8">
                    <mxGeometry width="160" relative="1" as="geometry">
                        <mxPoint x="430" y="70" as="sourcePoint"/>
                        <mxPoint x="300" y="150" as="targetPoint"/>
                    </mxGeometry>
                </mxCell>
                <mxCell id="2z0K_z1JKmJccBuWAb4L-3" value="" style="endArrow=none;startArrow=none;endFill=0;startFill=0;endSize=8;html=1;verticalAlign=bottom;labelBackgroundColor=none;strokeWidth=1;entryX=0;entryY=0.5;entryDx=0;entryDy=0;" edge="1" parent="Qr9QV7bX5ENCLl-kBg4W-1" target="Qr9QV7bX5ENCLl-kBg4W-3">
                    <mxGeometry width="160" relative="1" as="geometry">
                        <mxPoint x="90" y="110" as="sourcePoint"/>
                        <mxPoint x="210" y="260" as="targetPoint"/>
                        <Array as="points">
                            <mxPoint x="160" y="270"/>
                        </Array>
                    </mxGeometry>
                </mxCell>
                <mxCell id="2z0K_z1JKmJccBuWAb4L-4" value="" style="endArrow=none;startArrow=none;endFill=0;startFill=0;endSize=8;html=1;verticalAlign=bottom;labelBackgroundColor=none;strokeWidth=1;exitX=1;exitY=0.5;exitDx=0;exitDy=0;" edge="1" parent="Qr9QV7bX5ENCLl-kBg4W-1" source="Qr9QV7bX5ENCLl-kBg4W-5">
                    <mxGeometry width="160" relative="1" as="geometry">
                        <mxPoint x="560" y="500" as="sourcePoint"/>
                        <mxPoint x="750" y="250" as="targetPoint"/>
                        <Array as="points">
                            <mxPoint x="710" y="450"/>
                        </Array>
                    </mxGeometry>
                </mxCell>
                <mxCell id="rNcgIZyLMhiz7Yg6Gkg0-2" value="" style="ellipse;fillColor=#ffffff;strokeColor=#000000;" vertex="1" parent="Qr9QV7bX5ENCLl-kBg4W-1">
                    <mxGeometry x="320" y="380" width="10" height="10" as="geometry"/>
                </mxCell>
                <mxCell id="rNcgIZyLMhiz7Yg6Gkg0-4" value="" style="ellipse;fillColor=#ffffff;strokeColor=#000000;" vertex="1" parent="Qr9QV7bX5ENCLl-kBg4W-1">
                    <mxGeometry x="414" y="405" width="10" height="10" as="geometry"/>
                </mxCell>
                <mxCell id="rNcgIZyLMhiz7Yg6Gkg0-8" value="" style="ellipse;fillColor=#ffffff;strokeColor=#000000;" vertex="1" parent="Qr9QV7bX5ENCLl-kBg4W-1">
                    <mxGeometry x="300" y="140" width="10" height="10" as="geometry"/>
                </mxCell>
                <mxCell id="rNcgIZyLMhiz7Yg6Gkg0-9" value="" style="endArrow=none;startArrow=none;endFill=0;startFill=0;endSize=8;html=1;verticalAlign=bottom;labelBackgroundColor=none;strokeWidth=1;entryX=0;entryY=0.5;entryDx=0;entryDy=0;" edge="1" parent="Qr9QV7bX5ENCLl-kBg4W-1" target="Qr9QV7bX5ENCLl-kBg4W-4">
                    <mxGeometry width="160" relative="1" as="geometry">
                        <mxPoint x="90" y="110" as="sourcePoint"/>
                        <mxPoint x="110" y="440" as="targetPoint"/>
                        <Array as="points">
                            <mxPoint x="120" y="370"/>
                        </Array>
                    </mxGeometry>
                </mxCell>
                <mxCell id="rNcgIZyLMhiz7Yg6Gkg0-10" value="" style="endArrow=none;startArrow=none;endFill=0;startFill=0;endSize=8;html=1;verticalAlign=bottom;labelBackgroundColor=none;strokeWidth=1;entryX=0;entryY=0.5;entryDx=0;entryDy=0;" edge="1" parent="Qr9QV7bX5ENCLl-kBg4W-1" target="Qr9QV7bX5ENCLl-kBg4W-5">
                    <mxGeometry width="160" relative="1" as="geometry">
                        <mxPoint x="90" y="110" as="sourcePoint"/>
                        <mxPoint x="40" y="470" as="targetPoint"/>
                        <Array as="points">
                            <mxPoint x="100" y="460"/>
                        </Array>
                    </mxGeometry>
                </mxCell>
            </root>
        </mxGraphModel>
    </diagram>
</mxfile>